<?xml version="1.0" encoding="UTF-8" standalone="no"?>
<svg
   xmlns:dc="http://purl.org/dc/elements/1.1/"
   xmlns:cc="http://creativecommons.org/ns#"
   xmlns:rdf="http://www.w3.org/1999/02/22-rdf-syntax-ns#"
   xmlns:svg="http://www.w3.org/2000/svg"
   xmlns="http://www.w3.org/2000/svg"
   xmlns:sodipodi="http://sodipodi.sourceforge.net/DTD/sodipodi-0.dtd"
   xmlns:inkscape="http://www.inkscape.org/namespaces/inkscape"
   viewBox="0 0 347.09452 485.13343"
   height="485.13342"
   width="347.09451"
   xml:space="preserve"
   id="svg2"
   version="1.1"
   sodipodi:docname="icon.svg"
   inkscape:version="1.0beta1 (32d4812, 2019-09-19)"
   inkscape:export-filename="/Users/andries/Desktop/bitmap-32.png"
   inkscape:export-xdpi="6.3322787"
   inkscape:export-ydpi="6.3322787">
  <sodipodi:namedview
   pagecolor="#ffffff"
   bordercolor="#666666"
   borderopacity="1"
   objecttolerance="10"
   gridtolerance="10"
   guidetolerance="10"
   inkscape:pageopacity="0"
   inkscape:pageshadow="2"
   inkscape:window-width="1280"
   inkscape:window-height="778"
   id="namedview943"
   showgrid="false"
   inkscape:zoom="0.35"
   inkscape:cx="400"
   inkscape:cy="560"
   inkscape:window-x="0"
   inkscape:window-y="0"
   inkscape:window-maximized="0"
   inkscape:current-layer="svg2"
   fit-margin-top="0"
   fit-margin-left="0"
   fit-margin-right="0"
   fit-margin-bottom="0"
   showguides="true"
   inkscape:guide-bbox="true"
   inkscape:snap-bbox="false"
   inkscape:snap-bbox-edge-midpoints="true"
   inkscape:snap-midpoints="true"
   inkscape:document-rotation="0"
   inkscape:snap-nodes="false"
   inkscape:snap-bbox-midpoints="true"
   inkscape:bbox-nodes="true">
    <sodipodi:guide
   position="7.5004743,402.61182"
   orientation="1,0"
   id="guide1182"
   inkscape:locked="false" />



    <sodipodi:guide
   position="189.7923,475.93138"
   orientation="0,1"
   id="guide1184"
   inkscape:locked="false" />



    <sodipodi:guide
   position="339.59406,368.60223"
   orientation="1,0"
   id="guide1186"
   inkscape:locked="false" />



    <sodipodi:guide
   position="98.526123,7.5004767"
   orientation="0,1"
   id="guide1188"
   inkscape:locked="false" />



    <sodipodi:guide
   position="326.6728,394.26318"
   orientation="0.70710678,0.70710678"
   id="guide1194"
   inkscape:locked="false" />



    <sodipodi:guide
   position="173.54726,3.0593868e-07"
   orientation="1,0"
   id="guide931" />



  </sodipodi:namedview>



  <metadata
   id="metadata8">
    <rdf:RDF>
      <cc:Work
   rdf:about="">
        <dc:format>image/svg+xml</dc:format>



        <dc:type
   rdf:resource="http://purl.org/dc/dcmitype/StillImage" />



        <dc:title />



      </cc:Work>



    </rdf:RDF>



  </metadata>



  <defs
   id="defs6">
    <rect
   x="44.808464"
   y="301.54885"
   width="326.98068"
   height="221.62024"
   id="rect921" />



  </defs>



  <path
   sodipodi:nodetypes="sczscssssss"
   inkscape:connector-curvature="0"
   id="path917"
   d="M 36.508643,7.5004725 H 217.55966 c 25.00704,0 35.73129,10.7242505 44.11518,19.1081405 8.38389,8.3839 43.00585,43.00586 56.28635,56.28635 12.97633,12.97633 21.63286,33.636237 21.63286,52.641587 l -10e-6,313.08823 c 0,16.07052 -12.93765,29.00817 -29.00818,29.00817 H 36.508643 c -16.07052,0 -29.0081705,-12.93765 -29.0081705,-29.00817 V 36.508653 c 0,-16.07053 12.9376505,-29.0081805 29.0081705,-29.0081805 z"
   style="fill:#231f20;fill-opacity:1;stroke:#231f20;stroke-width:15.00094509;stroke-linejoin:round;stroke-miterlimit:4;stroke-dasharray:none;stroke-opacity:1" />



  <path
   d="M 8.0878906 158.36523 L 8.0878906 448.625 C 8.0878906 450.63382 8.2906297 452.59261 8.6757812 454.48438 C 9.0609328 456.37614 9.6293249 458.20109 10.361328 459.9375 C 11.093331 461.67391 11.988742 463.32248 13.029297 464.86523 C 14.069852 466.40799 15.255599 467.84544 16.566406 469.15625 C 17.877213 470.46706 19.31271 471.65085 20.855469 472.69141 C 22.398228 473.73196 24.046792 474.62737 25.783203 475.35938 C 27.519614 476.09138 29.344565 476.65977 31.236328 477.04492 C 33.128091 477.43007 35.086888 477.63281 37.095703 477.63281 L 311.17383 477.63281 C 313.18264 477.63281 315.14144 477.43007 317.0332 477.04492 C 318.92497 476.65977 320.74992 476.09138 322.48633 475.35938 C 324.22274 474.62737 325.8713 473.73196 327.41406 472.69141 C 328.95682 471.65085 330.39232 470.46706 331.70312 469.15625 C 333.01393 467.84544 334.19968 466.40799 335.24023 464.86523 C 336.28079 463.32248 337.1762 461.67391 337.9082 459.9375 C 338.64021 458.20109 339.2086 456.37614 339.59375 454.48438 C 339.9789 452.59261 340.18164 450.63382 340.18164 448.625 L 340.18164 158.36523 L 8.0878906 158.36523 z "
   style="opacity:1;fill:#ffffff;fill-opacity:1;stroke:none;stroke-width:3.77953;stroke-linejoin:round;stroke-opacity:1"
   id="path872" />



  <flowRoot
   xml:space="preserve"
   id="flowRoot1089"
   style="font-style:normal;font-variant:normal;font-weight:normal;font-stretch:normal;font-size:40px;line-height:125%;font-family:FontAwesome;-inkscape-font-specification:FontAwesome;letter-spacing:0px;word-spacing:0px;fill:#000000;fill-opacity:1;stroke:none;stroke-width:1px;stroke-linecap:butt;stroke-linejoin:miter;stroke-opacity:1"
   transform="translate(147.53993,278.19841)"><flowRegion
     id="flowRegion1091"
     style="font-style:normal;font-variant:normal;font-weight:normal;font-stretch:normal;font-family:FontAwesome;-inkscape-font-specification:FontAwesome"><rect
       id="rect1093"
       width="43.676151"
       height="40.139622"
       x="33.420212"
       y="-51.918926"
       style="font-style:normal;font-variant:normal;font-weight:normal;font-stretch:normal;font-family:FontAwesome;-inkscape-font-specification:FontAwesome" /></flowRegion><flowPara
     id="flowPara1095" /></flowRoot>  <path
   id="path894"
   style="fill:#231f20;fill-opacity:1;stroke:none;stroke-width:15.0009;stroke-linejoin:round;stroke-miterlimit:4;stroke-dasharray:none;stroke-opacity:1"
   d="m 7.5003876,133.04142 v 93.49414 c 0,8.57397 3.6842614,16.25518 9.5605474,21.55664 h 73.574219 c -1.097249,-0.77684 -2.119428,-1.60091 -3.03125,-2.47266 -8.127754,-7.85873 -8.24084,-16.98581 -8.472657,-25.53906 v -48.53906 h 25.999993 v 50.9668 c 0,3.46823 0.1192,7.0505 3.01953,9.82226 2.08764,2.19775 5.22405,3.00391 8.24023,3.00391 4.0632,0 6.73476,-1.50394 8.24415,-2.88672 3.0149,-2.88921 3.13085,-6.47122 3.13085,-9.93945 v -50.9668 h 26.11719 v 43.45508 c 0,9.35804 4.7e-4,21.49383 -9.63281,30.62304 -0.92082,0.86248 -1.93722,1.68656 -3.0332,2.47266 h 38.93554 c -11.46203,-8.22356 -16.84765,-21.96585 -16.84765,-35.29492 0,-21.95714 14.74305,-44.26172 42.48242,-44.26172 12.42024,0 24.25826,4.39461 32.84961,13.17969 3.48368,3.58105 5.10904,6.35196 6.84766,9.58593 l -21.70313,10.75196 c -2.09276,-4.8572 -6.03708,-13.52344 -16.94922,-13.52344 -5.68723,0 -9.28616,2.65886 -11.02734,4.39258 -6.15219,5.89149 -6.15235,15.13837 -6.15235,18.3789 0,12.13084 4.53218,23.57422 17.29883,23.57422 12.07249,0 15.67106,-10.6345 16.59961,-13.40625 l 22.05078,10.63086 c -2.09023,3.9288 -4.06242,7.62682 -8.00586,11.55469 -1.69483,1.65892 -3.52792,3.13305 -5.46484,4.4375 h 23.8457 v -76.66602 h 25.88086 v 60.25586 h 33.58789 v 16.41016 l 14.59766,-0.008 c 5.87088,-5.30117 9.55078,-12.97937 9.55078,-21.54883 v -93.49414 z"
   inkscape:connector-curvature="0" />



  
  
  
  
  
  
  
  
  
  
  <g
   aria-label="Math Proxy"
   transform="translate(-37.134571,-19.064949)"
   id="text919"
   style="font-style:normal;font-weight:normal;font-size:64px;line-height:1.25;font-family:sans-serif;text-align:center;text-anchor:middle;shape-inside:url(#rect921);fill:#000000;fill-opacity:1;stroke:none">
    <path
   d="m 135.08983,316.20182 v 45.696 h 9.408 v -32.064 h 0.128 l 11.2,32.064 h 7.744 l 11.2,-32.384 h 0.128 v 32.384 h 9.408 v -45.696 h -14.144 l -10.112,31.424 h -0.128 l -10.688,-31.424 z"
   style="font-style:normal;font-variant:normal;font-weight:bold;font-stretch:normal;font-family:'Helvetica Neue';-inkscape-font-specification:'Helvetica Neue Bold';text-align:center;text-anchor:middle"
   id="path933" />



    <path
   d="m 191.74583,338.98582 q 0.192,-3.2 1.6,-5.312 1.408,-2.112 3.584,-3.392 2.176,-1.28 4.864,-1.792 2.752,-0.576 5.504,-0.576 2.496,0 5.056,0.384 2.56,0.32 4.672,1.344 2.112,1.024 3.456,2.88 1.344,1.792 1.344,4.8 v 17.216 q 0,2.24 0.256,4.288 0.256,2.048 0.896,3.072 h -9.216 q -0.256,-0.768 -0.448,-1.536 -0.128,-0.832 -0.192,-1.664 -2.176,2.24 -5.12,3.136 -2.944,0.896 -6.016,0.896 -2.368,0 -4.416,-0.576 -2.048,-0.576 -3.584,-1.792 -1.536,-1.216 -2.432,-3.072 -0.832,-1.856 -0.832,-4.416 0,-2.816 0.96,-4.608 1.024,-1.856 2.56,-2.944 1.6,-1.088 3.584,-1.6 2.048,-0.576 4.096,-0.896 2.048,-0.32 4.032,-0.512 1.984,-0.192 3.52,-0.576 1.536,-0.384 2.432,-1.088 0.896,-0.768 0.832,-2.176 0,-1.472 -0.512,-2.304 -0.448,-0.896 -1.28,-1.344 -0.768,-0.512 -1.856,-0.64 -1.024,-0.192 -2.24,-0.192 -2.688,0 -4.224,1.152 -1.536,1.152 -1.792,3.84 z m 20.992,6.72 q -0.576,0.512 -1.472,0.832 -0.832,0.256 -1.856,0.448 -0.96,0.192 -2.048,0.32 -1.088,0.128 -2.176,0.32 -1.024,0.192 -2.048,0.512 -0.96,0.32 -1.728,0.896 -0.704,0.512 -1.152,1.344 -0.448,0.832 -0.448,2.112 0,1.216 0.448,2.048 0.448,0.832 1.216,1.344 0.768,0.448 1.792,0.64 1.024,0.192 2.112,0.192 2.688,0 4.16,-0.896 1.472,-0.896 2.176,-2.112 0.704,-1.28 0.832,-2.56 0.192,-1.28 0.192,-2.048 z"
   style="font-style:normal;font-variant:normal;font-weight:bold;font-stretch:normal;font-family:'Helvetica Neue';-inkscape-font-specification:'Helvetica Neue Bold';text-align:center;text-anchor:middle"
   id="path935" />



    <path
   d="m 240.39983,328.80982 v -9.92 h -9.088 v 9.92 h -5.504 v 6.08 h 5.504 v 19.52 q 0,2.496 0.832,4.032 0.832,1.536 2.24,2.368 1.472,0.832 3.328,1.088 1.92,0.32 4.032,0.32 1.344,0 2.752,-0.064 1.408,-0.064 2.56,-0.256 v -7.04 q -0.64,0.128 -1.344,0.192 -0.704,0.064 -1.472,0.064 -2.304,0 -3.072,-0.768 -0.768,-0.768 -0.768,-3.072 v -16.384 h 6.656 v -6.08 z"
   style="font-style:normal;font-variant:normal;font-weight:bold;font-stretch:normal;font-family:'Helvetica Neue';-inkscape-font-specification:'Helvetica Neue Bold';text-align:center;text-anchor:middle"
   id="path937" />



    <path
   d="m 251.37983,316.20182 v 45.696 h 9.088 v -17.344 q 0,-5.056 1.664,-7.232 1.664,-2.24 5.376,-2.24 3.264,0 4.544,2.048 1.28,1.984 1.28,6.08 v 18.688 h 9.088 v -20.352 q 0,-3.072 -0.576,-5.568 -0.512,-2.56 -1.856,-4.288 -1.344,-1.792 -3.712,-2.752 -2.304,-1.024 -5.952,-1.024 -2.56,0 -5.248,1.344 -2.688,1.28 -4.416,4.16 h -0.192 v -17.216 z"
   style="font-style:normal;font-variant:normal;font-weight:bold;font-stretch:normal;font-family:'Helvetica Neue';-inkscape-font-specification:'Helvetica Neue Bold';text-align:center;text-anchor:middle"
   id="path939" />



    <path
   d="m 136.20033,419.66566 v -13.696 h 7.808 q 1.728,0 3.328,0.256 1.6,0.256 2.816,1.024 1.216,0.704 1.92,2.048 0.768,1.344 0.768,3.52 0,2.176 -0.768,3.52 -0.704,1.344 -1.92,2.112 -1.216,0.704 -2.816,0.96 -1.6,0.256 -3.328,0.256 z m -10.048,-21.504 v 45.696 h 10.048 v -16.384 h 10.56 q 4.288,0 7.296,-1.216 3.008,-1.28 4.864,-3.328 1.92,-2.048 2.752,-4.672 0.896,-2.688 0.896,-5.44 0,-2.816 -0.896,-5.44 -0.832,-2.624 -2.752,-4.672 -1.856,-2.048 -4.864,-3.264 -3.008,-1.28 -7.296,-1.28 z"
   style="font-style:normal;font-variant:normal;font-weight:bold;font-stretch:normal;font-family:'Helvetica Neue';-inkscape-font-specification:'Helvetica Neue Bold';text-align:center;text-anchor:middle"
   id="path941" />



    <path
   d="m 167.94233,410.76966 v 33.088 h 9.088 v -14.912 q 0,-2.24 0.448,-4.16 0.448,-1.92 1.472,-3.328 1.088,-1.472 2.816,-2.304 1.728,-0.832 4.224,-0.832 0.832,0 1.728,0.128 0.896,0.064 1.536,0.192 v -8.448 q -1.088,-0.32 -1.984,-0.32 -1.728,0 -3.328,0.512 -1.6,0.512 -3.008,1.472 -1.408,0.896 -2.496,2.24 -1.088,1.28 -1.728,2.816 h -0.128 v -6.144 z"
   style="font-style:normal;font-variant:normal;font-weight:bold;font-stretch:normal;font-family:'Helvetica Neue';-inkscape-font-specification:'Helvetica Neue Bold';text-align:center;text-anchor:middle"
   id="path943" />



    <path
   d="m 199.6804,427.34566 q 0,-1.984 0.384,-3.904 0.384,-1.92 1.28,-3.392 0.96,-1.472 2.496,-2.368 1.536,-0.96 3.84,-0.96 2.304,0 3.84,0.96 1.6,0.896 2.496,2.368 0.96,1.472 1.344,3.392 0.384,1.92 0.384,3.904 0,1.984 -0.384,3.904 -0.384,1.856 -1.344,3.392 -0.896,1.472 -2.496,2.368 -1.536,0.896 -3.84,0.896 -2.304,0 -3.84,-0.896 -1.536,-0.896 -2.496,-2.368 -0.896,-1.536 -1.28,-3.392 -0.384,-1.92 -0.384,-3.904 z m -9.088,0 q 0,3.968 1.216,7.168 1.216,3.2 3.456,5.504 2.24,2.24 5.376,3.456 3.136,1.216 7.04,1.216 3.904,0 7.04,-1.216 3.2,-1.216 5.44,-3.456 2.24,-2.304 3.456,-5.504 1.216,-3.2 1.216,-7.168 0,-3.968 -1.216,-7.168 -1.216,-3.264 -3.456,-5.504 -2.24,-2.304 -5.44,-3.52 -3.136,-1.28 -7.04,-1.28 -3.904,0 -7.04,1.28 -3.136,1.216 -5.376,3.52 -2.24,2.24 -3.456,5.504 -1.216,3.2 -1.216,7.168 z"
   style="font-style:normal;font-variant:normal;font-weight:bold;font-stretch:normal;font-family:'Helvetica Neue';-inkscape-font-specification:'Helvetica Neue Bold';text-align:center;text-anchor:middle"
   id="path945" />



    <path
   d="m 239.14033,426.44966 -11.904,17.408 h 10.176 l 6.912,-10.432 6.912,10.432 h 10.368 l -12.224,-17.6 10.88,-15.488 h -10.048 l -5.76,8.64 -5.824,-8.64 h -10.368 z"
   style="font-style:normal;font-variant:normal;font-weight:bold;font-stretch:normal;font-family:'Helvetica Neue';-inkscape-font-specification:'Helvetica Neue Bold';text-align:center;text-anchor:middle"
   id="path947" />



    <path
   d="m 281.38733,447.95366 13.824,-37.184 h -9.408 l -7.232,22.656 h -0.128 l -7.488,-22.656 h -9.664 l 11.584,31.04 q 0.384,0.96 0.384,2.048 0,1.472 -0.896,2.688 -0.832,1.216 -2.624,1.408 -1.344,0.064 -2.688,-0.064 -1.344,-0.128 -2.624,-0.256 v 7.488 q 1.408,0.128 2.752,0.192 1.408,0.128 2.816,0.128 4.672,0 7.296,-1.728 2.624,-1.728 4.096,-5.76 z"
   style="font-style:normal;font-variant:normal;font-weight:bold;font-stretch:normal;font-family:'Helvetica Neue';-inkscape-font-specification:'Helvetica Neue Bold';text-align:center;text-anchor:middle"
   id="path949" />



  </g>



<rect
   style="fill:#231f20;stroke-width:3.77952;stroke-linejoin:round;fill-opacity:1"
   id="rect861"
   width="45.875977"
   height="30.416739"
   x="7.5003877"
   y="217.67546"
   rx="4.3040401e-08"
   ry="4.3040401e-08" />

<rect
   style="fill:#231f20;fill-opacity:1;stroke-width:3.77954;stroke-linejoin:round"
   id="rect863"
   width="20.57428"
   height="117.38866"
   x="322.76016"
   y="130.70352"
   rx="4.3040401e-08"
   ry="4.3040401e-08" />

</svg>
