<?xml version="1.0" encoding="UTF-8" standalone="no"?>
<svg
   xmlns:dc="http://purl.org/dc/elements/1.1/"
   xmlns:cc="http://creativecommons.org/ns#"
   xmlns:rdf="http://www.w3.org/1999/02/22-rdf-syntax-ns#"
   xmlns:svg="http://www.w3.org/2000/svg"
   xmlns="http://www.w3.org/2000/svg"
   xmlns:sodipodi="http://sodipodi.sourceforge.net/DTD/sodipodi-0.dtd"
   xmlns:inkscape="http://www.inkscape.org/namespaces/inkscape"
   width="213.08203"
   height="60.923828"
   version="1.1"
   id="svg100"
   sodipodi:docname="University_College_London_logo 2.svg"
   inkscape:version="0.92.4 (5da689c313, 2019-01-14)">
  <metadata
     id="metadata106">
    <rdf:RDF>
      <cc:Work
         rdf:about="">
        <dc:format>image/svg+xml</dc:format>
        <dc:type
           rdf:resource="http://purl.org/dc/dcmitype/StillImage" />
        <dc:title></dc:title>
      </cc:Work>
    </rdf:RDF>
  </metadata>
  <defs
     id="defs104" />
  <sodipodi:namedview
     pagecolor="#ffffff"
     bordercolor="#666666"
     borderopacity="1"
     objecttolerance="10"
     gridtolerance="10"
     guidetolerance="10"
     inkscape:pageopacity="0"
     inkscape:pageshadow="2"
     inkscape:window-width="1440"
     inkscape:window-height="855"
     id="namedview102"
     showgrid="false"
     inkscape:snap-bbox="true"
     inkscape:bbox-nodes="true"
     fit-margin-top="0"
     fit-margin-left="0"
     fit-margin-right="0"
     fit-margin-bottom="0"
     inkscape:zoom="4.3366667"
     inkscape:cx="97.157178"
     inkscape:cy="47.017154"
     inkscape:window-x="0"
     inkscape:window-y="1"
     inkscape:window-maximized="1"
     inkscape:current-layer="svg100" />
  <desc
     id="desc86">Logo of University College London</desc>
  <path
     style="fill:#ffffff;fill-opacity:1;fill-rule:evenodd;stroke:none;stroke-width:0.94488192;stroke-linecap:square;stroke-miterlimit:100;stroke-dasharray:none;stroke-opacity:1;paint-order:fill markers stroke"
     d="m 129.09375,0 c -21.24577,0 -32.537109,17.08327 -32.537109,33.900391 0,10.203985 4.122289,20.72394 12.892579,27.023437 h 39.83594 c 1.47836,-0.996771 2.87785,-2.122068 4.17187,-3.388672 3.02031,-3.00838 4.52994,-5.840519 6.13086,-8.849609 l -16.88867,-8.144532 c -0.71118,2.122901 -3.46845,10.269532 -12.71485,10.269532 -9.77806,0 -13.24804,-8.765551 -13.24804,-18.056641 0,-2.48195 8.8e-4,-9.563842 4.71289,-14.076172 1.33358,-1.32787 4.08943,-3.363281 8.44531,-3.363281 8.35768,0 11.37761,6.637262 12.98047,10.357422 L 159.49805,17.4375 c -1.33162,-2.47692 -2.57596,-4.601 -5.24414,-7.34375 C 147.67374,3.3652 138.60649,0 129.09375,0 Z m 38.44141,2.212891 v 58.710937 h 45.54687 V 48.365234 H 187.35742 V 2.212891 Z M 32.085941,2.302731 v 37.175781 c 0.17755,6.550991 0.26513,13.541497 6.49023,19.560547 0.69452,0.663997 1.47153,1.292667 2.30664,1.884766 h 38.76953 c 0.83413,-0.599076 1.60722,-1.227824 2.3086,-1.884766 7.37819,-6.99212 7.3789,-16.287698 7.3789,-23.455078 V 2.302731 h -20.0039 v 39.035157 c 0,2.656339 -0.0874,5.400411 -2.39649,7.613281 -1.15605,1.05908 -3.20437,2.210937 -6.3164,2.210937 -2.31012,0 -4.71161,-0.617511 -6.31055,-2.300781 -2.22138,-2.12291 -2.31055,-4.867097 -2.31055,-7.523437 V 2.302734 Z M 11.279297,2.742184 c 0,0 -0.105468,0.144968 -0.105468,0.179688 v 0.07813 c 0,0.02654 0.0076,0.03125 0.02539,0.03125 0.02862,0 0.03666,0.05664 -0.01563,0.05664 -0.05624,0 -0.08203,0.04761 -0.08203,0.07227 0,0.02318 -0.002,0.02403 -0.002,0.04297 0,0.03463 -0.205935,0.267897 -0.410157,0.429687 -0.02665,0.02121 -0.04561,0.03327 -0.07227,0.03711 h -0.0625 c -0.01482,0 -0.0293,0.0142 -0.0293,0.0293 v 0.115224 c 0,0.01578 0.01448,0.0293 0.0293,0.0293 h 0.04883 c 0.02169,0.0046 0.03906,0.0305 0.03906,0.08594 0,0.05357 -0.01444,0.07901 -0.0332,0.08789 h -0.05469 c -0.01482,0 -0.0293,0.01077 -0.0293,0.02734 v 0.115234 c 0,0.01549 0.01448,0.0293 0.0293,0.0293 h 0.0039 c 0.0059,0.0016 0.0097,0.002 0.01367,0.002 0.02663,0 0.05859,-0.0053 0.05859,0.03516 v 1.199219 c -0.03451,0.01696 -0.08008,0.05002 -0.08008,0.107422 v 0.09766 c 0,0.02437 -0.02004,0.06445 -0.06445,0.06445 h -0.183594 c -0.04046,0 -0.06836,0.03087 -0.06836,0.05859 v 0.195313 c 0,0.01844 0.02318,0.04416 0.05078,0.04297 0.09274,-0.0027 0.15625,0.02443 0.15625,0.0918 0,0.0035 -0.002,0.07077 -0.002,0.07422 0,0.06323 -0.06278,0.09136 -0.132812,0.115234 -0.13417,0.04706 -0.443262,0.128783 -0.451172,0.345704 -0.50999,0.23617 -1.432766,0.74415 -2.097656,1.74414 -0.85133,1.16405 -0.771407,2.77222 -0.779297,3 -0.002,0.04774 -0.03579,0.07813 -0.07227,0.07813 h -0.09961 c -0.04243,0 -0.04102,0.03516 -0.04102,0.03516 v 0.167969 c 0,0 0.0014,0.04102 -0.04297,0.04102 H 6.554562 c 0,0 -0.04102,6.05e-4 -0.04102,0.04687 v 0.179687 c 0,0 0.0015,0.03711 -0.04687,0.03711 H 6.298704 c 0,0 -0.04687,-1.85e-4 -0.04688,0.04687 v 0.195312 c 0,0.0215 0.01449,0.02458 0.0293,0.02734 0.05031,0.0065 0.152344,0.05308 0.152344,0.164062 0,0.1896 0.11573,0.207032 0.162109,0.207032 v 0.701171 c 0,0.162971 -0.127208,0.226781 -0.199218,0.244141 -0.01479,0.0023 -0.03516,0.01942 -0.03516,0.03906 v 0.720703 l 4.917968,-1.085938 h 0.0078 l 4.917969,1.085938 v -0.720703 c 0,-0.01964 -0.02232,-0.0368 -0.03711,-0.03906 -0.07201,-0.01736 -0.197266,-0.08117 -0.197266,-0.244141 v -0.701171 c 0.04636,0 0.16211,-0.01743 0.16211,-0.207032 0,-0.11098 0.102051,-0.157552 0.15039,-0.164062 0.01678,-0.0028 0.03125,-0.0058 0.03125,-0.02734 v -0.195312 c 0,-0.04706 -0.04883,-0.04687 -0.04883,-0.04687 h -0.167968 c -0.0444,0 -0.04297,-0.03711 -0.04297,-0.03711 v -0.179687 c 0,-0.04627 -0.04492,-0.04687 -0.04492,-0.04687 h -0.164063 c -0.04538,0 -0.04297,-0.04102 -0.04297,-0.04102 v -0.167969 c 0,0 -5.69e-4,-0.03516 -0.04297,-0.03516 h -0.09961 c -0.03452,0 -0.0703,-0.03039 -0.07227,-0.07813 -0.0059,-0.22778 0.07201,-1.83595 -0.777344,-3 -0.66884,-0.99999 -1.589636,-1.50797 -2.097656,-1.74414 -0.0099,-0.216921 -0.318955,-0.298644 -0.453125,-0.345704 -0.07201,-0.02387 -0.132813,-0.052 -0.132813,-0.115234 0,-0.0035 -0.002,-0.07076 -0.002,-0.07422 0,-0.06737 0.06254,-0.09447 0.154297,-0.0918 0.02958,0.0012 0.05078,-0.02452 0.05078,-0.04297 V 5.753958 c 0,-0.02772 -0.02596,-0.05859 -0.06641,-0.05859 h -0.183593 c -0.0444,0 -0.06445,-0.04007 -0.06445,-0.06445 v -0.09766 c 0,-0.0574 -0.04363,-0.09046 -0.07813,-0.107422 V 4.226617 c 0,-0.04044 0.02999,-0.03516 0.05664,-0.03516 0.0039,0 0.0098,-3.53e-4 0.01367,-0.002 h 0.0039 c 0.01482,0 0.0293,-0.01381 0.0293,-0.0293 V 4.044923 c 0,-0.01657 -0.01447,-0.02734 -0.0293,-0.02734 h -0.05469 c -0.01878,-0.0089 -0.03125,-0.03432 -0.03125,-0.08789 0,-0.05544 0.01537,-0.0813 0.03906,-0.08594 h 0.04687 c 0.01482,0 0.0293,-0.01352 0.0293,-0.0293 V 3.699219 c 0,-0.0151 -0.01447,-0.0293 -0.0293,-0.0293 h -0.0625 c -0.02663,-0.0038 -0.04564,-0.01591 -0.07227,-0.03711 -0.20421,-0.16179 -0.410156,-0.395057 -0.410156,-0.429687 v -0.04297 c 0,-0.02466 -0.02581,-0.07227 -0.08203,-0.07227 -0.05424,0 -0.04619,-0.05664 -0.01758,-0.05664 0.01973,0 0.02344,-0.0047 0.02344,-0.03125 v -0.07813 c 0,-0.03472 -0.103515,-0.179688 -0.103515,-0.179688 z m -0.0059,11.28125 c 0,0 -10.701946,2.299668 -10.722656,2.304688 -0.05821,0.01154 -0.03906,0.0625 -0.03906,0.0625 l 0.148438,0.546875 h 0.0293 c 0.0065,-7.35e-4 0.165039,-0.0171 0.259766,0.132812 l 0.158203,0.882813 c 0,0 0.0052,0.06055 0.06836,0.06055 h 0.386718 0.08594 v 0.259765 c 0,0.01499 0.0087,0.02344 0.02148,0.02344 l 0.07031,0.002 c 0.03256,0 0.03516,0.03249 0.03516,0.06445 0,0.04084 0.01902,0.252918 0.167969,0.38086 0.018785,0.01849 0.011215,0.07027 -0.031215,0.07027 H 1.85938 c -0.03648,0 -0.03822,0.02529 -0.02734,0.04492 0.01379,0.02466 0.01563,0.09742 0.01563,0.130859 v 0.119141 c 0,0.02161 0.0027,0.03906 0.02539,0.03906 H 1.8965 c 0,0 0.01758,-0.0018 0.01758,0.01758 v 0.02344 5.992188 c -0.01675,0.01845 -0.08099,0.08336 -0.08594,0.08789 -0.0059,0.005 -0.0098,0.01221 -0.0098,0.02148 v 0.103516 c 0,0.0074 -0.002,0.01723 -0.0059,0.02148 -0.0059,0.005 -0.0175,0.0059 -0.02539,0.0059 H 1.712891 c -0.01283,0 -0.02539,0.01267 -0.02539,0.02539 v 0.173829 0.605468 H 0.845704 v 1.435547 H 10e-7 v 1.453125 H 22.550783 V 27.664094 H 21.70508 v -1.435547 h -0.839844 v -0.628906 h -0.002 v -0.152344 c 0,-0.01272 -0.01161,-0.02539 -0.02344,-0.02539 h -0.07422 c -0.0099,0 -0.01949,-8.58e-4 -0.02539,-0.0059 -0.0039,-0.0042 -0.0059,-0.01408 -0.0059,-0.02148 v -0.103516 c 0,-0.0077 -0.0019,-0.01223 -0.0098,-0.01953 -0.0099,-0.0081 -0.06322,-0.0633 -0.08789,-0.08984 v -5.992188 -0.02344 c 0,-0.01934 0.01758,-0.01758 0.01758,-0.01758 h 0.02148 c 0.02071,0 0.02539,-0.01745 0.02539,-0.03906 v -0.119141 c 0,-0.03344 0.0057,-0.106199 0.01758,-0.130859 0.01392,-0.01963 0.0093,-0.04492 -0.02917,-0.04492 h -0.04883 c -0.04636,0 -0.05098,-0.05216 -0.03125,-0.07031 0.14996,-0.122121 0.166016,-0.335714 0.166016,-0.376954 0,-0.0366 -0.0034,-0.06836 0.03711,-0.06836 l 0.06836,-0.002 c 0.01183,0 0.02148,-0.0085 0.02148,-0.02344 v -0.259765 h 0.08398 0.390624 c 0.05427,0 0.06055,-0.04492 0.06055,-0.04492 l 0.160157,-0.882813 c 0.09001,-0.16934 0.260962,-0.149255 0.267578,-0.148437 h 0.02539 l 0.150391,-0.546875 c 0,0 0.02013,-0.05096 -0.03906,-0.0625 -0.03848,-0.0081 -10.728515,-2.304688 -10.728515,-2.304688 z m -7.947266,3.990235 h 1.837891 v 0.259765 c 0,0.01499 0.0097,0.02344 0.02344,0.02344 l 0.06641,0.002 c 0.03453,0 0.03711,0.03249 0.03711,0.06445 0,0.04084 0.02001,0.252918 0.167969,0.38086 0.01974,0.01854 0.01121,0.07031 -0.0332,0.07031 h -0.05078 c -0.03847,0 -0.03919,0.02529 -0.02734,0.04492 0.0138,0.02466 0.01563,0.09742 0.01563,0.130859 v 0.119141 c 0,0.02161 0.0017,0.03906 0.02539,0.03906 h 0.02344 c 0,0 0.01758,-0.0018 0.01758,0.01758 v 0.02344 5.992188 c -0.01774,0.01845 -0.08201,0.08336 -0.08594,0.08789 -0.0059,0.005 -0.0098,0.01221 -0.0098,0.02148 v 0.103516 c 0,0.0074 -0.0019,0.01723 -0.0078,0.02148 -0.0029,0.005 -0.01358,0.0059 -0.02344,0.0059 h -0.07227 c -0.01379,0 -0.02734,0.01267 -0.02734,0.02539 v 0.152344 H 3.283159 v -0.152344 c 0,-0.01272 -0.01064,-0.02539 -0.02344,-0.02539 h -0.07617 c -0.0079,0 -0.01755,-8.58e-4 -0.02148,-0.0059 -0.0059,-0.0042 -0.0078,-0.01408 -0.0078,-0.02148 v -0.103516 c 0,-0.0077 -0.0019,-0.01223 -0.0078,-0.01953 -0.0089,-0.0081 -0.06321,-0.0633 -0.08789,-0.08984 v -5.992229 -0.02344 c 0,-0.01934 0.01563,-0.01758 0.01563,-0.01758 h 0.02148 c 0.02269,0 0.02539,-0.01745 0.02539,-0.03906 v -0.119141 c 0,-0.03344 0.0038,-0.106199 0.01953,-0.130859 0.00892,-0.01963 0.00721,-0.04492 -0.02928,-0.04492 h -0.04883 c -0.04833,0 -0.05197,-0.05216 -0.03125,-0.07031 0.14896,-0.122121 0.164063,-0.335714 0.164063,-0.376954 0,-0.0366 -0.0034,-0.06836 0.03711,-0.06836 l 0.06836,-0.002 c 0.0128,0 0.02539,-0.0085 0.02539,-0.02344 z m 3.513672,0 h 1.839844 v 0.259765 c 0,0.01499 0.0087,0.02344 0.02148,0.02344 l 0.07031,0.002 c 0.03255,0 0.03516,0.03249 0.03516,0.06445 0,0.04084 0.01708,0.252918 0.166016,0.38086 0.020754,0.0185 0.011214,0.07027 -0.031206,0.07027 h -0.04883 c -0.03846,0 -0.04016,0.02529 -0.0293,0.04492 0.0138,0.02466 0.01758,0.09742 0.01758,0.130859 v 0.119141 c 0,0.02161 0.0027,0.03906 0.02539,0.03906 h 0.02344 c 0,0 0.01563,-0.0018 0.01563,0.01758 v 0.02344 5.992188 c -0.01677,0.01845 -0.08296,0.08336 -0.08789,0.08789 -0.0039,0.005 -0.0078,0.01221 -0.0078,0.02148 v 0.103516 c 0,0.0074 -0.0019,0.01723 -0.0078,0.02148 -0.0059,0.005 -0.01554,0.0059 -0.02344,0.0059 h -0.07422 c -0.01281,0 -0.02344,0.01267 -0.02344,0.02539 v 0.152344 H 6.798853 v -0.152344 c 0,-0.01272 -0.0097,-0.02539 -0.02148,-0.02539 h -0.07813 c -0.0079,0 -0.01461,-8.58e-4 -0.01953,-0.0059 -0.0059,-0.0042 -0.0078,-0.01408 -0.0078,-0.02148 v -0.103516 c 0,-0.0077 -0.0038,-0.01223 -0.01172,-0.01953 -0.0079,-0.0081 -0.06126,-0.0633 -0.08789,-0.08984 v -5.992188 -0.02344 c 0,-0.01934 0.01758,-0.01758 0.01758,-0.01758 h 0.02148 c 0.02367,0 0.02539,-0.01745 0.02539,-0.03906 v -0.119141 c 0,-0.03344 0.0037,-0.106199 0.01758,-0.130859 0.013764,-0.01963 0.011041,-0.04492 -0.02738,-0.04492 h -0.05078 c -0.04636,0 -0.05294,-0.05216 -0.03125,-0.07031 0.14996,-0.122121 0.166016,-0.335714 0.166016,-0.376954 0,-0.0366 -0.0014,-0.06836 0.03711,-0.06836 l 0.06836,-0.002 c 0.0138,0 0.02344,-0.0085 0.02344,-0.02344 z m 3.517578,0 h 1.835938 v 0.259765 c 0,0.01499 0.01162,0.02344 0.02539,0.02344 l 0.07031,0.002 c 0.03059,0 0.0332,0.03249 0.0332,0.06445 0,0.04084 0.01804,0.252918 0.166016,0.38086 0.01972,0.01854 0.01313,0.07031 -0.0293,0.07031 h -0.05078 c -0.03846,0 -0.04115,0.02529 -0.0293,0.04492 0.01283,0.02466 0.01758,0.09742 0.01758,0.130859 v 0.119141 c 0,0.02161 0.0018,0.03906 0.02148,0.03906 h 0.02734 c 0,0 0.01758,-0.0018 0.01758,0.01758 v 0.02344 5.992188 c -0.01775,0.01845 -0.08391,0.08336 -0.08984,0.08789 -0.0059,0.005 -0.0098,0.01221 -0.0098,0.02148 v 0.103516 c 0,0.0074 -0.002,0.01723 -0.0059,0.02148 -0.0059,0.005 -0.01359,0.0059 -0.02148,0.0059 h -0.07617 c -0.01183,0 -0.02344,0.01267 -0.02344,0.02539 v 0.152344 h -1.921876 v -0.152344 c 0,-0.01272 -0.01067,-0.02539 -0.02344,-0.02539 h -0.07617 c -0.0089,0 -0.01559,-8.58e-4 -0.02148,-0.0059 -0.004,-0.0042 -0.0059,-0.01408 -0.0059,-0.02148 v -0.103516 c 0,-0.0077 -0.0019,-0.01223 -0.0098,-0.01953 -0.0089,-0.0081 -0.06127,-0.0633 -0.08594,-0.08984 v -5.992229 c 0,0 -0.002,-0.0077 -0.002,-0.02344 0,-0.01934 0.01563,-0.01758 0.01563,-0.01758 h 0.02344 c 0.01875,0 0.02344,-0.01745 0.02344,-0.03906 v -0.119141 c 0,-0.03344 0.0057,-0.106199 0.01953,-0.130859 0.01107,-0.01963 0.0074,-0.04492 -0.02906,-0.04492 h -0.04883 c -0.04735,0 -0.05197,-0.05216 -0.03125,-0.07031 0.15092,-0.122121 0.164063,-0.335714 0.164063,-0.376954 0,-0.0366 -0.0014,-0.06836 0.03711,-0.06836 l 0.07031,-0.002 c 0.01283,0 0.02344,-0.0085 0.02344,-0.02344 z m 3.513672,0 h 1.839844 v 0.259765 c 0,0.01499 0.01066,0.02344 0.02344,0.02344 l 0.07031,0.002 c 0.03157,0 0.0332,0.03249 0.0332,0.06445 0,0.04084 0.01904,0.252918 0.166016,0.38086 0.02071,0.01854 0.01313,0.07031 -0.0293,0.07031 h -0.04883 c -0.03848,0 -0.04211,0.02529 -0.03125,0.04492 0.01577,0.02466 0.01758,0.09742 0.01758,0.130859 v 0.119141 c 0,0.02161 0.0027,0.03906 0.02344,0.03906 h 0.02344 c 0,0 0.01758,-0.0018 0.01758,0.01758 0,0.01578 0.002,0.02344 0.002,0.02344 v 5.992188 c -0.01874,0.01845 -0.08394,0.08336 -0.08789,0.08789 -0.0049,0.005 -0.0098,0.01221 -0.0098,0.02148 v 0.103516 c 0,0.0074 8.7e-5,0.01723 -0.0078,0.02148 -0.0039,0.005 -0.0116,0.0059 -0.02148,0.0059 h -0.07813 c -0.01086,0 -0.01953,0.01267 -0.01953,0.02539 v 0.152344 h -1.923828 v -0.152344 c 0,-0.01272 -0.01163,-0.02539 -0.02344,-0.02539 h -0.07422 c -0.0099,0 -0.01951,-8.58e-4 -0.02344,-0.0059 -0.003,-0.0042 -0.0078,-0.01408 -0.0078,-0.02148 v -0.103516 c 0,-0.0077 -0.0019,-0.01223 -0.0078,-0.01953 -0.0098,-0.0081 -0.05927,-0.0633 -0.08789,-0.08984 v -5.992229 -0.02344 c 0,-0.01934 0.01758,-0.01758 0.01758,-0.01758 h 0.01758 c 0.02564,0 0.02734,-0.01745 0.02734,-0.03906 v -0.119141 c 0,-0.03344 0.0057,-0.106199 0.01953,-0.130859 0.0099,-0.01963 0.01116,-0.04492 -0.02735,-0.04492 h -0.05078 c -0.04637,0 -0.05297,-0.05216 -0.0293,-0.07031 0.147959,-0.122121 0.162109,-0.335714 0.162109,-0.376954 0,-0.0366 5.82e-4,-0.06836 0.03906,-0.06836 l 0.06836,-0.002 c 0.01379,0 0.02148,-0.0085 0.02148,-0.02344 z m 3.517578,0 h 1.835938 v 0.259765 c 0,0.01499 0.01357,0.02344 0.02539,0.02344 l 0.07031,0.002 c 0.03255,0 0.0332,0.03249 0.0332,0.06445 0,0.04084 0.01804,0.252918 0.166016,0.38086 0.02171,0.01854 0.01709,0.07031 -0.0293,0.07031 h -0.05078 c -0.0365,0 -0.0392,0.02529 -0.02734,0.04492 0.01281,0.02466 0.01758,0.09742 0.01758,0.130859 v 0.119141 c 0,0.02161 0.0018,0.03906 0.02344,0.03906 h 0.02344 c 0,0 0.01758,-0.0018 0.01758,0.01758 v 0.02344 5.992188 c -0.01775,0.01845 -0.08197,0.08336 -0.08789,0.08789 -0.004,0.005 -0.0098,0.01221 -0.0098,0.02148 v 0.103516 c 0,0.0074 -0.0019,0.01723 -0.0078,0.02148 -0.0039,0.005 -0.01357,0.0059 -0.02344,0.0059 h -0.07422 c -0.01379,0 -0.02539,0.01267 -0.02539,0.02539 v 0.152344 h -1.919922 v -0.152344 c 0,-0.01272 -0.01063,-0.02539 -0.02148,-0.02539 h -0.07617 c -0.0089,0 -0.01948,-8.58e-4 -0.02344,-0.0059 -0.0059,-0.0042 -0.0078,-0.01408 -0.0078,-0.02148 v -0.103516 c 0,-0.0077 -0.0019,-0.01223 -0.0098,-0.01953 -0.0069,-0.0081 -0.05831,-0.0633 -0.08594,-0.08984 v -5.992229 -0.02344 c 0,-0.01934 0.01758,-0.01758 0.01758,-0.01758 h 0.02148 c 0.02074,0 0.02344,-0.01745 0.02344,-0.03906 v -0.119141 c 0,-0.03344 0.0067,-0.106199 0.01953,-0.130859 0.01,-0.01963 0.0073,-0.04492 -0.02921,-0.04492 h -0.04883 c -0.04636,0 -0.05196,-0.05216 -0.03125,-0.07031 0.14994,-0.122121 0.166016,-0.335714 0.166016,-0.376954 0,-0.0366 -0.0014,-0.06836 0.03711,-0.06836 l 0.07031,-0.002 c 0.01086,0 0.02148,-0.0085 0.02148,-0.02344 z"
     id="rect108"
     inkscape:connector-curvature="0" />
</svg>
